<svg width="22" height="20" viewBox="0 0 22 20" fill="none" xmlns="http://www.w3.org/2000/svg">
<path d="M0 11C0 11.5304 0.210714 12.0391 0.585787 12.4142C0.960859 12.7893 1.46957 13 2 13H8.32L7.36 17.57C7.34 17.67 7.33 17.78 7.33 17.89C7.33 18.3 7.5 18.68 7.77 18.95L8.83 20L15.41 13.42C15.78 13.05 16 12.55 16 12V2C16 1.46957 15.7893 0.960859 15.4142 0.585787C15.0391 0.210714 14.5304 0 14 0H5C4.17 0 3.46 0.5 3.16 1.22L0.139999 8.27C0.0499992 8.5 0 8.74 0 9V11ZM22 0H18V12H22V0Z" fill="white"/>
</svg>
